<svg xmlns="http://www.w3.org/2000/svg" xmlns:xlink="http://www.w3.org/1999/xlink" viewBox="0 0 512 512" width="512" height="512" style="width: 100%; height: 100%; transform: translate3d(0,0,0); content-visibility: visible;" preserveAspectRatio="xMidYMid meet"><defs><clipPath id="__lottie_element_2"><rect width="512" height="512" x="0" y="0"></rect></clipPath><radialGradient id="__lottie_element_8" spreadMethod="pad" gradientUnits="userSpaceOnUse" cx="2.7860000133514404" cy="14.104999542236328" r="74.40733433534264" fx="2.7860000133514404" fy="14.104999542236328"><stop offset="0%" stop-color="rgb(255,255,255)"></stop><stop offset="26%" stop-color="rgb(246,222,241)"></stop><stop offset="51%" stop-color="rgb(236,189,227)"></stop><stop offset="71%" stop-color="rgb(144,120,139)"></stop><stop offset="91%" stop-color="rgb(51,51,51)"></stop><stop offset="92%" stop-color="rgb(77,77,77)"></stop><stop offset="93%" stop-color="rgb(103,103,103)"></stop><stop offset="96%" stop-color="rgb(156,156,156)"></stop><stop offset="100%" stop-color="rgb(209,209,209)"></stop></radialGradient><radialGradient id="__lottie_element_9" spreadMethod="pad" gradientUnits="userSpaceOnUse" cx="0.22499999403953552" cy="-0.6990000009536743" r="74.82400360703468" fx="0.22499999403953552" fy="-0.6990000009536743"><stop offset="0%" stop-color="rgb(120,7,112)"></stop><stop offset="35%" stop-color="rgb(175,119,171)"></stop><stop offset="70%" stop-color="rgb(230,230,230)"></stop><stop offset="85%" stop-color="rgb(168,159,164)"></stop><stop offset="100%" stop-color="rgb(105,87,98)"></stop></radialGradient><linearGradient id="__lottie_element_10" spreadMethod="pad" gradientUnits="userSpaceOnUse" x1="0.902999997138977" y1="42.24100112915039" x2="0.902999997138977" y2="-44.15599822998047"><stop offset="0%" stop-color="rgb(106,0,105)"></stop><stop offset="50%" stop-color="rgb(53,0,52)"></stop><stop offset="100%" stop-color="rgb(0,0,0)"></stop></linearGradient><radialGradient id="__lottie_element_11" spreadMethod="pad" gradientUnits="userSpaceOnUse" cx="243.03900146484375" cy="280.12298583984375" r="75.29770629358723" fx="243.03900146484375" fy="280.12298583984375"><stop offset="0%" stop-color="rgb(255,255,255)"></stop><stop offset="26%" stop-color="rgb(222,246,243)"></stop><stop offset="51%" stop-color="rgb(189,236,231)"></stop><stop offset="71%" stop-color="rgb(120,144,141)"></stop><stop offset="91%" stop-color="rgb(51,51,51)"></stop><stop offset="92%" stop-color="rgb(77,77,77)"></stop><stop offset="93%" stop-color="rgb(103,103,103)"></stop><stop offset="96%" stop-color="rgb(156,156,156)"></stop><stop offset="100%" stop-color="rgb(209,209,209)"></stop></radialGradient><radialGradient id="__lottie_element_14" spreadMethod="pad" gradientUnits="userSpaceOnUse"><stop></stop><stop></stop><stop></stop><stop></stop><stop></stop></radialGradient><radialGradient id="__lottie_element_18" spreadMethod="pad" gradientUnits="userSpaceOnUse"><stop></stop><stop></stop><stop></stop><stop></stop><stop></stop></radialGradient><radialGradient id="__lottie_element_19" spreadMethod="pad" gradientUnits="userSpaceOnUse"><stop></stop><stop></stop><stop></stop><stop></stop><stop></stop></radialGradient><radialGradient id="__lottie_element_23" spreadMethod="pad" gradientUnits="userSpaceOnUse"><stop></stop><stop></stop><stop></stop><stop></stop><stop></stop></radialGradient><radialGradient id="__lottie_element_27" spreadMethod="pad" gradientUnits="userSpaceOnUse"><stop></stop><stop></stop><stop></stop><stop></stop><stop></stop></radialGradient><radialGradient id="__lottie_element_31" spreadMethod="pad" gradientUnits="userSpaceOnUse"><stop></stop><stop></stop><stop></stop><stop></stop><stop></stop></radialGradient><radialGradient id="__lottie_element_32" spreadMethod="pad" gradientUnits="userSpaceOnUse"><stop></stop><stop></stop><stop></stop><stop></stop><stop></stop></radialGradient><radialGradient id="__lottie_element_36" spreadMethod="pad" gradientUnits="userSpaceOnUse"><stop></stop><stop></stop><stop></stop><stop></stop><stop></stop></radialGradient><radialGradient id="__lottie_element_37" spreadMethod="pad" gradientUnits="userSpaceOnUse"><stop></stop><stop></stop><stop></stop><stop></stop><stop></stop></radialGradient><linearGradient id="__lottie_element_44" spreadMethod="pad" gradientUnits="userSpaceOnUse"><stop></stop><stop></stop><stop></stop><stop></stop><stop></stop><stop></stop><stop></stop><stop></stop><stop></stop></linearGradient><linearGradient id="__lottie_element_48" spreadMethod="pad" gradientUnits="userSpaceOnUse"><stop></stop><stop></stop><stop></stop><stop></stop><stop></stop><stop></stop><stop></stop><stop></stop><stop></stop></linearGradient><linearGradient id="__lottie_element_49" spreadMethod="pad" gradientUnits="userSpaceOnUse"><stop></stop><stop></stop><stop></stop><stop></stop><stop></stop><stop></stop><stop></stop></linearGradient><linearGradient id="__lottie_element_50" spreadMethod="pad" gradientUnits="userSpaceOnUse"><stop></stop><stop></stop><stop></stop><stop></stop><stop></stop></linearGradient><linearGradient id="__lottie_element_51" spreadMethod="pad" gradientUnits="userSpaceOnUse"><stop></stop><stop></stop><stop></stop></linearGradient><radialGradient id="__lottie_element_55" spreadMethod="pad" gradientUnits="userSpaceOnUse" cx="-13.50100040435791" cy="1.8930000066757202" r="46.893897429050924" fx="-13.50100040435791" fy="1.8930000066757202"><stop offset="0%" stop-color="rgb(255,255,255)" stop-opacity="1"></stop><stop offset="50%" stop-color="rgb(255,255,255)" stop-opacity="0.5"></stop><stop offset="100%" stop-color="rgb(255,255,255)" stop-opacity="0"></stop></radialGradient><linearGradient id="__lottie_element_59" spreadMethod="pad" gradientUnits="userSpaceOnUse" x1="-0.8190000057220459" y1="-1.9149999618530273" x2="-4.251999855041504" y2="17.823999404907227"><stop offset="0%" stop-color="rgb(180,7,7)" stop-opacity="1"></stop><stop offset="9%" stop-color="rgb(180,7,7)" stop-opacity="1"></stop><stop offset="19%" stop-color="rgb(180,7,7)" stop-opacity="1"></stop><stop offset="60%" stop-color="rgb(181,7,7)" stop-opacity="0.5"></stop><stop offset="100%" stop-color="rgb(182,8,8)" stop-opacity="0"></stop></linearGradient><linearGradient id="__lottie_element_66" spreadMethod="pad" gradientUnits="userSpaceOnUse" x1="-20.25" y1="-0.6299999952316284" x2="29.94700050354004" y2="-0.7009999752044678"><stop offset="0%" stop-color="rgb(255,255,255)"></stop><stop offset="9%" stop-color="rgb(243,243,243)"></stop><stop offset="18%" stop-color="rgb(230,230,230)"></stop><stop offset="22%" stop-color="rgb(198,198,198)"></stop><stop offset="25%" stop-color="rgb(165,165,165)"></stop><stop offset="46%" stop-color="rgb(210,210,210)"></stop><stop offset="67%" stop-color="rgb(255,255,255)"></stop><stop offset="72%" stop-color="rgb(141,141,141)"></stop><stop offset="77%" stop-color="rgb(26,26,26)"></stop><stop offset="89%" stop-color="rgb(77,77,77)"></stop><stop offset="100%" stop-color="rgb(128,128,128)"></stop></linearGradient><linearGradient id="__lottie_element_70" spreadMethod="pad" gradientUnits="userSpaceOnUse" x1="-4.084000110626221" y1="13.387999534606934" x2="4.270999908447266" y2="-20.031999588012695"><stop offset="0%" stop-color="rgb(177,7,7)"></stop><stop offset="50%" stop-color="rgb(165,5,5)"></stop><stop offset="100%" stop-color="rgb(154,2,2)"></stop></linearGradient><linearGradient id="__lottie_element_71" spreadMethod="pad" gradientUnits="userSpaceOnUse" x1="-4.861000061035156" y1="13.093999862670898" x2="3.49399995803833" y2="-20.32699966430664"><stop offset="0%" stop-color="rgb(177,7,7)"></stop><stop offset="50%" stop-color="rgb(165,5,5)"></stop><stop offset="100%" stop-color="rgb(154,2,2)"></stop></linearGradient><linearGradient id="__lottie_element_75" spreadMethod="pad" gradientUnits="userSpaceOnUse" x1="-64.22000122070312" y1="-103.75" x2="-9.467000007629395" y2="91.25"><stop offset="0%" stop-color="rgb(167,0,0)"></stop><stop offset="50%" stop-color="rgb(175,4,4)"></stop><stop offset="100%" stop-color="rgb(184,8,8)"></stop></linearGradient><linearGradient id="__lottie_element_76" spreadMethod="pad" gradientUnits="userSpaceOnUse" x1="-116.8290023803711" y1="-26.68199920654297" x2="112.69300079345703" y2="39.31800079345703"><stop offset="0%" stop-color="rgb(97,0,0)" stop-opacity="1"></stop><stop offset="50%" stop-color="rgb(116,0,0)" stop-opacity="0.5849999785423279"></stop><stop offset="100%" stop-color="rgb(134,0,0)" stop-opacity="0.17000000178813934"></stop></linearGradient><linearGradient id="__lottie_element_77" spreadMethod="pad" gradientUnits="userSpaceOnUse" x1="-104.65599822998047" y1="-81.89900207519531" x2="61.08000183105469" y2="20.10099983215332"><stop offset="0%" stop-color="rgb(255,215,167)"></stop><stop offset="6%" stop-color="rgb(255,227,165)"></stop><stop offset="12%" stop-color="rgb(255,239,162)"></stop><stop offset="22%" stop-color="rgb(186,152,81)"></stop><stop offset="33%" stop-color="rgb(117,65,0)"></stop><stop offset="44%" stop-color="rgb(138,69,0)"></stop><stop offset="55%" stop-color="rgb(159,74,0)"></stop><stop offset="77%" stop-color="rgb(182,105,30)"></stop><stop offset="100%" stop-color="rgb(205,136,59)"></stop></linearGradient><linearGradient id="__lottie_element_78" spreadMethod="pad" gradientUnits="userSpaceOnUse" x1="-75.93599700927734" y1="-19.375" x2="192.08799743652344" y2="-4.625"><stop offset="0%" stop-color="rgb(117,38,0)" stop-opacity="0.33000001311302185"></stop><stop offset="10%" stop-color="rgb(117,38,0)" stop-opacity="0.6650000214576721"></stop><stop offset="20%" stop-color="rgb(117,38,0)" stop-opacity="1"></stop><stop offset="24%" stop-color="rgb(97,32,0)" stop-opacity="1"></stop><stop offset="27%" stop-color="rgb(78,25,0)" stop-opacity="1"></stop><stop offset="64%" stop-color="rgb(126,59,10)" stop-opacity="1"></stop><stop offset="100%" stop-color="rgb(174,94,20)" stop-opacity="1"></stop></linearGradient><linearGradient id="__lottie_element_82" spreadMethod="pad" gradientUnits="userSpaceOnUse" x1="-139.968994140625" y1="-4.333000183105469" x2="85.22200012207031" y2="-6.050000190734863"><stop offset="0%" stop-color="rgb(255,215,167)"></stop><stop offset="6%" stop-color="rgb(255,227,165)"></stop><stop offset="12%" stop-color="rgb(255,239,162)"></stop><stop offset="22%" stop-color="rgb(186,152,81)"></stop><stop offset="33%" stop-color="rgb(117,65,0)"></stop><stop offset="44%" stop-color="rgb(138,69,0)"></stop><stop offset="55%" stop-color="rgb(159,74,0)"></stop><stop offset="77%" stop-color="rgb(182,105,30)"></stop><stop offset="100%" stop-color="rgb(205,136,59)"></stop></linearGradient><linearGradient id="__lottie_element_83" spreadMethod="pad" gradientUnits="userSpaceOnUse" x1="-141.91000366210938" y1="-0.41600000858306885" x2="141.4720001220703" y2="-0.41600000858306885"><stop offset="0%" stop-color="rgb(117,38,0)" stop-opacity="0.33000001311302185"></stop><stop offset="10%" stop-color="rgb(117,38,0)" stop-opacity="0.6650000214576721"></stop><stop offset="20%" stop-color="rgb(117,38,0)" stop-opacity="1"></stop><stop offset="24%" stop-color="rgb(97,32,0)" stop-opacity="1"></stop><stop offset="27%" stop-color="rgb(78,25,0)" stop-opacity="1"></stop><stop offset="64%" stop-color="rgb(126,59,10)" stop-opacity="1"></stop><stop offset="100%" stop-color="rgb(174,94,20)" stop-opacity="1"></stop></linearGradient><linearGradient id="__lottie_element_84" spreadMethod="pad" gradientUnits="userSpaceOnUse" x1="-18.156999588012695" y1="55.62300109863281" x2="11.729999542236328" y2="-63.926998138427734"><stop offset="0%" stop-color="rgb(188,9,9)"></stop><stop offset="50%" stop-color="rgb(167,5,5)"></stop><stop offset="100%" stop-color="rgb(146,0,0)"></stop></linearGradient></defs><g clip-path="url(#__lottie_element_2)"><g style="display: block;" transform="matrix(0.999998927116394,0,0,0.999998927116394,0.00000847861883812584,0.000232782811508514)" opacity="1"><g opacity="1" transform="matrix(1,0,0,1,236.968994140625,382.3330078125)"><path fill="url(#__lottie_element_82)" fill-opacity="1" d=" M-142.5260009765625,-48.95399856567383 C-142.5260009765625,-48.95399856567383 -139.2760009765625,37.80799865722656 -139.2760009765625,37.80799865722656 C-138.11900329589844,62.87799835205078 -118.0459976196289,88.0770034790039 -82.0530014038086,110.70800018310547 C-76.00900268554688,114.50800323486328 -67.5989990234375,116.57499694824219 -58.6609992980957,116.41600036621094 C114.16500091552734,113.3479995727539 138.25799560546875,40.71799850463867 139.15699768066406,31.917999267578125 C139.15699768066406,31.917999267578125 142.52200317382812,-55.12799835205078 142.52200317382812,-55.12799835205078 C143.08200073242188,-89.53500366210938 85.7969970703125,-111.73500061035156 17.263999938964844,-87.7229995727539 C10.652000427246094,-85.40599822998047 3.2690000534057617,-86.55999755859375 0.7419999837875366,-90.26899719238281 C-33.698001861572266,-140.80999755859375 -142.30599975585938,-113.27300262451172 -142.5260009765625,-48.95399856567383z"></path><path stroke-linecap="round" stroke-linejoin="round" fill-opacity="0" stroke="rgb(117,37,0)" stroke-opacity="1" stroke-width="6" d=" M-142.5260009765625,-48.95399856567383 C-142.5260009765625,-48.95399856567383 -139.2760009765625,37.80799865722656 -139.2760009765625,37.80799865722656 C-138.11900329589844,62.87799835205078 -118.0459976196289,88.0770034790039 -82.0530014038086,110.70800018310547 C-76.00900268554688,114.50800323486328 -67.5989990234375,116.57499694824219 -58.6609992980957,116.41600036621094 C114.16500091552734,113.3479995727539 138.25799560546875,40.71799850463867 139.15699768066406,31.917999267578125 C139.15699768066406,31.917999267578125 142.52200317382812,-55.12799835205078 142.52200317382812,-55.12799835205078 C143.08200073242188,-89.53500366210938 85.7969970703125,-111.73500061035156 17.263999938964844,-87.7229995727539 C10.652000427246094,-85.40599822998047 3.2690000534057617,-86.55999755859375 0.7419999837875366,-90.26899719238281 C-33.698001861572266,-140.80999755859375 -142.30599975585938,-113.27300262451172 -142.5260009765625,-48.95399856567383z"></path></g><g opacity="1" transform="matrix(1,0,0,1,236.91000366210938,431.4159851074219)"><path stroke="url(#__lottie_element_83)" stroke-linecap="round" stroke-linejoin="round" fill-opacity="0" stroke-opacity="1" stroke-width="3" d=" M-140.1909942626953,-36.867000579833984 C-139.0189971923828,-11.446000099182129 -118.79900360107422,14.102999687194824 -82.55500030517578,37.04600143432617 C-76.46900177001953,40.89899826049805 -68.00199890136719,42.99300003051758 -59.00299835205078,42.832000732421875 C114.38500213623047,39.733001708984375 139.28900146484375,-33.96699905395508 140.1909942626953,-42.840999603271484"></path></g><g opacity="1" transform="matrix(1,0,0,1,236.3520050048828,348.4570007324219)"><path fill="rgb(0,0,0)" fill-opacity="1" d=" M-5.836999893188477,-46.145999908447266 C-0.8009999990463257,-38.93899917602539 8.432000160217285,-36.321998596191406 19.108999252319336,-39.90999984741211 C94.43199920654297,-65.22599792480469 152.42599487304688,-34.808998107910156 121.33599853515625,7.568999767303467 C93.06199645996094,46.10900115966797 17.104999542236328,67.01799774169922 -59.40999984741211,68.83799743652344 C-67.58300018310547,69.03199768066406 -75.26399993896484,67.10399627685547 -80.77400207519531,63.51100158691406 C-127.06500244140625,33.32899856567383 -140.43499755859375,-10.920999526977539 -121.76300048828125,-39.4630012512207 C-102.8030014038086,-68.44400024414062 -32.80400085449219,-84.73500061035156 -5.836999893188477,-46.145999908447266z"></path><path stroke-linecap="round" stroke-linejoin="round" fill-opacity="0" stroke="rgb(33,33,33)" stroke-opacity="1" stroke-width="6" d=" M-5.836999893188477,-46.145999908447266 C-0.8009999990463257,-38.93899917602539 8.432000160217285,-36.321998596191406 19.108999252319336,-39.90999984741211 C94.43199920654297,-65.22599792480469 152.42599487304688,-34.808998107910156 121.33599853515625,7.568999767303467 C93.06199645996094,46.10900115966797 17.104999542236328,67.01799774169922 -59.40999984741211,68.83799743652344 C-67.58300018310547,69.03199768066406 -75.26399993896484,67.10399627685547 -80.77400207519531,63.51100158691406 C-127.06500244140625,33.32899856567383 -140.43499755859375,-10.920999526977539 -121.76300048828125,-39.4630012512207 C-102.8030014038086,-68.44400024414062 -32.80400085449219,-84.73500061035156 -5.836999893188477,-46.145999908447266z"></path></g><g opacity="1" transform="matrix(1,0,0,1,236.15699768066406,342.37701416015625)"><path fill="url(#__lottie_element_84)" fill-opacity="1" d=" M-5.73199987411499,-43.42100143432617 C-0.8569999933242798,-36.58700180053711 8.03499984741211,-34.06800079345703 18.288000106811523,-37.40299987792969 C90.58000183105469,-60.92100143432617 146.52099609375,-31.899999618530273 116.88600158691406,8.001999855041504 C89.9000015258789,44.33700180053711 16.854999542236328,63.76499938964844 -56.85499954223633,65.10700225830078 C-64.72899627685547,65.25 -72.13700103759766,63.38399887084961 -77.45800018310547,59.95100021362305 C-122.14099884033203,31.125 -135.125,-10.817999839782715 -117.22599792480469,-37.702999114990234 C-99.06800079345703,-64.97699737548828 -31.81999969482422,-79.98999786376953 -5.73199987411499,-43.42100143432617z"></path><path stroke-linecap="round" stroke-linejoin="round" fill-opacity="0" stroke="rgb(101,1,1)" stroke-opacity="1" stroke-width="6" d=" M-5.73199987411499,-43.42100143432617 C-0.8569999933242798,-36.58700180053711 8.03499984741211,-34.06800079345703 18.288000106811523,-37.40299987792969 C90.58000183105469,-60.92100143432617 146.52099609375,-31.899999618530273 116.88600158691406,8.001999855041504 C89.9000015258789,44.33700180053711 16.854999542236328,63.76499938964844 -56.85499954223633,65.10700225830078 C-64.72899627685547,65.25 -72.13700103759766,63.38399887084961 -77.45800018310547,59.95100021362305 C-122.14099884033203,31.125 -135.125,-10.817999839782715 -117.22599792480469,-37.702999114990234 C-99.06800079345703,-64.97699737548828 -31.81999969482422,-79.98999786376953 -5.73199987411499,-43.42100143432617z"></path></g><g opacity="1" transform="matrix(1,0,0,1,236.968994140625,382.3330078125)"><path stroke-linecap="round" stroke-linejoin="round" fill-opacity="0" stroke="rgb(77,25,0)" stroke-opacity="1" stroke-width="6" d=" M-63.183998107910156,116.30500030517578 C-61.698001861572266,116.40499877929688 -60.1870002746582,116.44300079345703 -58.6609992980957,116.41600036621094 C114.16500091552734,113.3479995727539 138.25799560546875,40.71799850463867 139.15699768066406,31.917999267578125 C139.15699768066406,31.917999267578125 142.52200317382812,-55.12799835205078 142.52200317382812,-55.12799835205078 C143.08200073242188,-89.53500366210938 85.7969970703125,-111.73500061035156 17.263999938964844,-87.7229995727539 C10.652000427246094,-85.40599822998047 3.2690000534057617,-86.55999755859375 0.7419999837875366,-90.26899719238281 C-13.234000205993652,-110.77799987792969 -39.422000885009766,-118.43099975585938 -65.6259994506836,-115.98500061035156"></path></g><g opacity="1" transform="matrix(1,0,0,1,236.968994140625,382.3330078125)"><path stroke-linecap="round" stroke-linejoin="round" fill-opacity="0" stroke="rgb(201,130,54)" stroke-opacity="1" stroke-width="6" d=" M-58.38800048828125,-116.4020004272461 C-99.00800323486328,-115.52999877929688 -142.38699340820312,-89.5790023803711 -142.5260009765625,-48.95399856567383 C-142.5260009765625,-48.95399856567383 -142.5260009765625,-48.95399856567383 -142.5260009765625,-48.95399856567383 C-142.5260009765625,-48.95399856567383 -141.36900329589844,-18.079999923706055 -140.43600463867188,6.834000110626221"></path></g></g><g style="display: block;" transform="matrix(0.999998927116394,0,0,0.999998927116394,-0.0005843252874910831,7.0005903244018555)" opacity="1"><g opacity="1" transform="matrix(1,0,0,1,265.4670104980469,164.75)"><path fill="url(#__lottie_element_75)" fill-opacity="1" d=" M-127.56700134277344,12.560999870300293 C-131.0489959716797,-37.22600173950195 -79.62899780273438,-117.83699798583984 -8.61299991607666,-110.74400329589844 C62.40299987792969,-103.6510009765625 132.052001953125,-12.324000358581543 127.5250015258789,55.79999923706055 C122.99800109863281,123.92400360107422 47.60100173950195,125.90599822998047 13.472999572753906,79.73600006103516 C5.114999771118164,70.26799774169922 -6.203000068664551,71.9739990234375 -11.60099983215332,78.95999908447266 C-16.999000549316406,85.94599914550781 -103.01599884033203,124.3499984741211 -127.56700134277344,12.560999870300293z"></path><path stroke-linecap="round" stroke-linejoin="round" fill-opacity="0" stroke="rgb(0,0,0)" stroke-opacity="1" stroke-width="6" d=" M-127.56700134277344,12.560999870300293 C-131.0489959716797,-37.22600173950195 -79.62899780273438,-117.83699798583984 -8.61299991607666,-110.74400329589844 C62.40299987792969,-103.6510009765625 132.052001953125,-12.324000358581543 127.5250015258789,55.79999923706055 C122.99800109863281,123.92400360107422 47.60100173950195,125.90599822998047 13.472999572753906,79.73600006103516 C5.114999771118164,70.26799774169922 -6.203000068664551,71.9739990234375 -11.60099983215332,78.95999908447266 C-16.999000549316406,85.94599914550781 -103.01599884033203,124.3499984741211 -127.56700134277344,12.560999870300293z"></path></g><g opacity="1" transform="matrix(1,0,0,1,285.3070068359375,135.6820068359375)"><path fill="url(#__lottie_element_76)" fill-opacity="1" d=" M13.744000434875488,73.9280014038086 C6.953000068664551,66.38700103759766 -4.800000190734863,67.3280029296875 -10.807000160217285,72.9010009765625 C-53.696998596191406,112.68900299072266 -120.29299926757812,70.88099670410156 -122.94300079345703,12.093000411987305 C-125.45899963378906,-43.72800064086914 -87.7770004272461,-87.28299713134766 -20.858999252319336,-105.7770004272461 C-13.222999572753906,-107.88700103759766 -4.4070000648498535,-106.63500213623047 3.6110000610351562,-102.30000305175781 C73.87200164794922,-64.31199645996094 119.61699676513672,-6.660999774932861 122.91999816894531,49.13100051879883 C126.39800262451172,107.89099884033203 65.14099884033203,131.0050048828125 13.744000434875488,73.9280014038086z"></path></g><g opacity="0.25" transform="matrix(1,0,0,1,0,0)"><g opacity="1" transform="matrix(1,0,0,1,0,0)"><g opacity="1" transform="matrix(1,0,0,1,248.30599975585938,141.64300537109375)"><path fill="rgb(255,255,255)" fill-opacity="1" d=" M7.752999782562256,-8.984999656677246 C7.752999782562256,-8.984999656677246 -7.752999782562256,-11.032999992370605 -7.752999782562256,-11.032999992370605 C-7.752999782562256,-11.032999992370605 -7.752999782562256,-8.388999938964844 -7.752999782562256,-8.388999938964844 C-7.752999782562256,-8.388999938964844 -1.1360000371932983,-7.515999794006348 -1.1360000371932983,-7.515999794006348 C-1.1360000371932983,-7.515999794006348 -1.1360000371932983,10.6850004196167 -1.1360000371932983,10.6850004196167 C-1.1360000371932983,10.6850004196167 1.5,11.032999992370605 1.5,11.032999992370605 C1.5,11.032999992370605 1.5,-7.168000221252441 1.5,-7.168000221252441 C1.5,-7.168000221252441 7.752999782562256,-6.3420000076293945 7.752999782562256,-6.3420000076293945 C7.752999782562256,-6.3420000076293945 7.752999782562256,-8.984999656677246 7.752999782562256,-8.984999656677246z"></path></g><g opacity="1" transform="matrix(1,0,0,1,261.10198974609375,146.74600219726562)"><path fill="rgb(255,255,255)" fill-opacity="1" d=" M0.5799999833106995,-8.355999946594238 C-11.958000183105469,-9.553999900817871 -8.08899974822998,12.151000022888184 6.056000232696533,7.835000038146973 C6.056000232696533,7.835000038146973 5.1579999923706055,5.23199987411499 5.1579999923706055,5.23199987411499 C0.906000018119812,6.202000141143799 -3.2160000801086426,4.684000015258789 -3.9570000171661377,0.16899999976158142 C-3.9570000171661377,0.16899999976158142 6.925000190734863,1.6059999465942383 6.925000190734863,1.6059999465942383 C7.5,-3.5910000801086426 4.230000019073486,-8.006999969482422 0.5799999833106995,-8.355999946594238z M-3.9159998893737793,-2.4690001010894775 C-2.9130001068115234,-7.183000087738037 3.7850000858306885,-6.703000068664551 4.201000213623047,-1.3969999551773071 C4.201000213623047,-1.3969999551773071 -3.9159998893737793,-2.4690001010894775 -3.9159998893737793,-2.4690001010894775z"></path></g><g opacity="1" transform="matrix(1,0,0,1,272.864990234375,144.74400329589844)"><path fill="rgb(255,255,255)" fill-opacity="1" d=" M-1.3179999589920044,10.803000450134277 C-1.3179999589920044,10.803000450134277 1.3179999589920044,11.151000022888184 1.3179999589920044,11.151000022888184 C1.3179999589920044,11.151000022888184 1.3179999589920044,-10.803000450134277 1.3179999589920044,-10.803000450134277 C1.3179999589920044,-10.803000450134277 -1.3179999589920044,-11.151000022888184 -1.3179999589920044,-11.151000022888184 C-1.3179999589920044,-11.151000022888184 -1.3179999589920044,10.803000450134277 -1.3179999589920044,10.803000450134277z"></path></g><g opacity="1" transform="matrix(1,0,0,1,300.29998779296875,154.73800659179688)"><path fill="rgb(255,255,255)" fill-opacity="1" d=" M4.111000061035156,-8.623000144958496 C-10.246999740600586,-19.72599983215332 -10.493000030517578,10.279000282287598 4.111000061035156,3.3989999294281006 C5.011000156402588,8.708000183105469 -1.0119999647140503,9.730999946594238 -4.9029998779296875,6.978000164031982 C-4.9029998779296875,6.978000164031982 -6.203999996185303,9.104999542236328 -6.203999996185303,9.104999542236328 C-1.3209999799728394,12.685999870300293 6.925000190734863,11.58899974822998 6.747000217437744,4.952000141143799 C6.747000217437744,4.952000141143799 6.747000217437744,-9.395999908447266 6.747000217437744,-9.395999908447266 C6.747000217437744,-9.395999908447266 4.111000061035156,-9.744000434875488 4.111000061035156,-9.744000434875488 C4.111000061035156,-9.744000434875488 4.111000061035156,-8.623000144958496 4.111000061035156,-8.623000144958496z M-0.30300000309944153,1.7699999809265137 C-5.658999919891357,1.2589999437332153 -5.446000099182129,-9.128000259399414 -0.45100000500679016,-8.32800006866455 C5.281000137329102,-7.7870001792907715 5.638000011444092,2.7790000438690186 -0.30300000309944153,1.7699999809265137z"></path></g><g opacity="1" transform="matrix(1,0,0,1,314.8869934082031,153.48699951171875)"><path fill="rgb(255,255,255)" fill-opacity="1" d=" M-1.2259999513626099,-5.789999961853027 C-1.2259999513626099,-5.789999961853027 -1.2259999513626099,-7.271999835968018 -1.2259999513626099,-7.271999835968018 C-1.2259999513626099,-7.271999835968018 -3.861999988555908,-7.619999885559082 -3.861999988555908,-7.619999885559082 C-3.861999988555908,-7.619999885559082 -3.861999988555908,7.271999835968018 -3.861999988555908,7.271999835968018 C-3.861999988555908,7.271999835968018 -1.2259999513626099,7.619999885559082 -1.2259999513626099,7.619999885559082 C-1.1039999723434448,3.3399999141693115 -2.3910000324249268,-5.177000045776367 3.861999988555908,-4.580999851226807 C3.861999988555908,-4.580999851226807 3.861999988555908,-7.224999904632568 3.861999988555908,-7.224999904632568 C1.8259999752044678,-7.49399995803833 0.08500000089406967,-6.9629998207092285 -1.2259999513626099,-5.789999961853027z"></path></g><g opacity="1" transform="matrix(1,0,0,1,326.0840148925781,155.2740020751953)"><path fill="rgb(255,255,255)" fill-opacity="1" d=" M5.590000152587891,-0.6370000243186951 C5.761000156402588,-7.142000198364258 0.7279999852180481,-9.345000267028809 -5.210999965667725,-7.6620001792907715 C-5.210999965667725,-7.6620001792907715 -4.216000080108643,-5.083000183105469 -4.216000080108643,-5.083000183105469 C-0.33000001311302185,-6.001999855041504 2.7179999351501465,-5.829999923706055 2.9489998817443848,-1.7120000123977661 C-9.442000389099121,-4.813000202178955 -8.64799976348877,11.218000411987305 3.203000068664551,6.559999942779541 C3.319000005722046,7.5970001220703125 3.430000066757202,8.152000427246094 3.440999984741211,8.204999923706055 C3.440999984741211,8.204999923706055 6.019000053405762,7.99399995803833 6.019000053405762,7.99399995803833 C6.013000011444092,7.965000152587891 5.431000232696533,5.0320000648498535 5.590000152587891,-0.6370000243186951z M-3.4010000228881836,2.809999942779541 C-3.0799999237060547,0.1289999932050705 0.9430000185966492,0.6389999985694885 2.9260001182556152,0.9330000281333923 C3.947999954223633,5.540999889373779 -3.7750000953674316,5.934000015258789 -3.4010000228881836,2.809999942779541z"></path></g><g opacity="1" transform="matrix(1,0,0,1,346.4280090332031,157.97999572753906)"><path fill="rgb(255,255,255)" fill-opacity="1" d=" M8.142999649047852,-5.998000144958496 C5.547999858856201,-7.618000030517578 3.0429999828338623,-6.73799991607666 1.281000018119812,-4.284999847412109 C-0.33899998664855957,-8.60200023651123 -5.72599983215332,-9.052000045776367 -7.973999977111816,-5.519999980926514 C-7.973999977111816,-5.519999980926514 -7.973999977111816,-8.491000175476074 -7.973999977111816,-8.491000175476074 C-7.973999977111816,-8.491000175476074 -10.609999656677246,-8.83899974822998 -10.609999656677246,-8.83899974822998 C-10.609999656677246,-8.83899974822998 -10.609999656677246,6.052000045776367 -10.609999656677246,6.052000045776367 C-10.609999656677246,6.052000045776367 -7.973999977111816,6.401000022888184 -7.973999977111816,6.401000022888184 C-7.973999977111816,-4.453000068664551 -4.2179999351501465,-5.86899995803833 -2.380000114440918,-5.010000228881836 C0.006000000052154064,-3.8949999809265137 -1.152999997138977,2.9230000972747803 -0.9990000128746033,7.38700008392334 C-0.9990000128746033,7.38700008392334 1.6360000371932983,7.669000148773193 1.6360000371932983,7.669000148773193 C1.3669999837875366,2.8420000076293945 2.4839999675750732,-5.552000045776367 6.86299991607666,-3.8559999465942383 C8.789999961853027,-2.809000015258789 7.513000011444092,6.834000110626221 7.860000133514404,8.491000175476074 C7.860000133514404,8.491000175476074 10.496000289916992,8.83899974822998 10.496000289916992,8.83899974822998 C10.031000137329102,5.501999855041504 12.041000366210938,-3.76200008392334 8.142999649047852,-5.998000144958496z"></path></g><g opacity="1" transform="matrix(1,0,0,1,283.8059997558594,149.74400329589844)"><path fill="rgb(255,255,255)" fill-opacity="1" d=" M0.5799999833106995,-8.355999946594238 C-11.958000183105469,-9.553999900817871 -8.08899974822998,12.151000022888184 6.056000232696533,7.835000038146973 C6.056000232696533,7.835000038146973 5.1579999923706055,5.23199987411499 5.1579999923706055,5.23199987411499 C0.906000018119812,6.202000141143799 -3.2160000801086426,4.684000015258789 -3.9570000171661377,0.16899999976158142 C-3.9570000171661377,0.16899999976158142 6.925000190734863,1.6059999465942383 6.925000190734863,1.6059999465942383 C7.5,-3.5910000801086426 4.230000019073486,-8.006999969482422 0.5799999833106995,-8.355999946594238z M-3.9159998893737793,-2.4690001010894775 C-2.9130001068115234,-7.183000087738037 3.7850000858306885,-6.703000068664551 4.201000213623047,-1.3969999551773071 C4.201000213623047,-1.3969999551773071 -3.9159998893737793,-2.4690001010894775 -3.9159998893737793,-2.4690001010894775z"></path></g></g><g opacity="1" transform="matrix(1,0,0,1,217.61000061035156,140.72500610351562)"><g opacity="1" transform="matrix(1,0,0,1,0,0)"><path fill="rgb(255,255,255)" fill-opacity="1" d=" M10.470999717712402,12.00100040435791 C10.470999717712402,12.00100040435791 16.32200050354004,-11.307000160217285 16.32200050354004,-11.307000160217285 C16.492000579833984,-11.982999801635742 15.779999732971191,-12.666999816894531 15.079000473022461,-12.50100040435791 C15.079000473022461,-12.50100040435791 -15.805000305175781,-5.184000015258789 -15.805000305175781,-5.184000015258789 C-16.548999786376953,-5.007999897003174 -16.520000457763672,-3.989000082015991 -15.76200008392334,-3.6670000553131104 C-15.76200008392334,-3.6670000553131104 -7.6620001792907715,-0.2280000001192093 -7.6620001792907715,-0.2280000001192093 C-7.6620001792907715,-0.2280000001192093 10.545000076293945,-8.769000053405762 10.545000076293945,-8.769000053405762 C10.545000076293945,-8.769000053405762 -3.38700008392334,2.265000104904175 -3.38700008392334,2.265000104904175 C-3.38700008392334,2.265000104904175 9.17199993133545,12.312999725341797 9.17199993133545,12.312999725341797 C9.656999588012695,12.701000213623047 10.336000442504883,12.538000106811523 10.470999717712402,12.00100040435791z"></path></g></g></g><g opacity="1" transform="matrix(1,0,0,1,276.9200134277344,145.8990020751953)"><path fill="url(#__lottie_element_77)" fill-opacity="1" d=" M29.700000762939453,-127.81400299072266 C21.079999923706055,-132.2310028076172 11.906999588012695,-133.85699462890625 3.8359999656677246,-131.5679931640625 C-42.172000885009766,-118.52200317382812 -104.91999816894531,-84.14900207519531 -133.80799865722656,-19.79400062561035 C-139.06900024414062,-8.074999809265137 -145.0540008544922,9.630999565124512 -143.73300170898438,32.49300003051758 C-140.05599975585938,96.11900329589844 -66.98200225830078,144.0330047607422 -17.698999404907227,98.46900177001953 C-13.576000213623047,94.65699768066406 -6.460999965667725,95.68900299072266 -1.8240000009536743,100.77300262451172 C40.4119987487793,147.07699584960938 95.00199890136719,135.32400512695312 109.8030014038086,113.2750015258789 C124.60399627685547,91.22599792480469 138.01100158691406,69.15299987792969 138.01100158691406,69.15299987792969 C142.53799438476562,59.64799880981445 179.33099365234375,-51.14899826049805 29.700000762939453,-127.81400299072266z M2.0199999809265137,92.63099670410156 C-4.770999908447266,85.08999633789062 -16.52400016784668,86.03099822998047 -22.5310001373291,91.60399627685547 C-65.4209976196289,131.39199829101562 -132.01699829101562,89.58399963378906 -134.66700744628906,30.79599952697754 C-137.18299865722656,-25.024999618530273 -99.5009994506836,-68.58000183105469 -32.58300018310547,-87.0739974975586 C-24.94700050354004,-89.18399810791016 -16.1299991607666,-87.93199920654297 -8.112000465393066,-83.59700012207031 C62.14899826049805,-45.60900115966797 107.89299774169922,12.041999816894531 111.19599914550781,67.83399963378906 C114.67400360107422,126.59400177001953 53.41699981689453,149.70799255371094 2.0199999809265137,92.63099670410156z"></path><path stroke-linecap="round" stroke-linejoin="round" fill-opacity="0" stroke="rgb(117,37,0)" stroke-opacity="1" stroke-width="6" d=" M29.700000762939453,-127.81400299072266 C21.079999923706055,-132.2310028076172 11.906999588012695,-133.85699462890625 3.8359999656677246,-131.5679931640625 C-42.172000885009766,-118.52200317382812 -104.91999816894531,-84.14900207519531 -133.80799865722656,-19.79400062561035 C-139.06900024414062,-8.074999809265137 -145.0540008544922,9.630999565124512 -143.73300170898438,32.49300003051758 C-140.05599975585938,96.11900329589844 -66.98200225830078,144.0330047607422 -17.698999404907227,98.46900177001953 C-13.576000213623047,94.65699768066406 -6.460999965667725,95.68900299072266 -1.8240000009536743,100.77300262451172 C40.4119987487793,147.07699584960938 95.00199890136719,135.32400512695312 109.8030014038086,113.2750015258789 C124.60399627685547,91.22599792480469 138.01100158691406,69.15299987792969 138.01100158691406,69.15299987792969 C142.53799438476562,59.64799880981445 179.33099365234375,-51.14899826049805 29.700000762939453,-127.81400299072266z M2.0199999809265137,92.63099670410156 C-4.770999908447266,85.08999633789062 -16.52400016784668,86.03099822998047 -22.5310001373291,91.60399627685547 C-65.4209976196289,131.39199829101562 -132.01699829101562,89.58399963378906 -134.66700744628906,30.79599952697754 C-137.18299865722656,-25.024999618530273 -99.5009994506836,-68.58000183105469 -32.58300018310547,-87.0739974975586 C-24.94700050354004,-89.18399810791016 -16.1299991607666,-87.93199920654297 -8.112000465393066,-83.59700012207031 C62.14899826049805,-45.60900115966797 107.89299774169922,12.041999816894531 111.19599914550781,67.83399963378906 C114.67400360107422,126.59400177001953 53.41699981689453,149.70799255371094 2.0199999809265137,92.63099670410156z"></path></g><g opacity="1" transform="matrix(1,0,0,1,287.6619873046875,127.125)"><path stroke="url(#__lottie_element_78)" stroke-linecap="round" stroke-linejoin="round" fill-opacity="0" stroke-opacity="1" stroke-width="3" d=" M119.47000122070312,100.76100158691406 C124.77300262451172,89.6259994506836 154.08700561523438,-16.31100082397461 8.378999710083008,-96.96299743652344 C-0.0949999988079071,-101.65399932861328 -9.21500015258789,-101.49500274658203 -17.285999298095703,-99.20600128173828 C-63.29399871826172,-86.16000366210938 -127.91200256347656,-51.124000549316406 -150.66700744628906,15.130999565124512"></path></g><g opacity="1" transform="matrix(1,0,0,1,276.9200134277344,145.8990020751953)"><path stroke-linecap="round" stroke-linejoin="round" fill-opacity="0" stroke="rgb(77,25,0)" stroke-opacity="1" stroke-width="6" d=" M-94.61399841308594,108.16799926757812 C-70.33999633789062,120.6709976196289 -41.292999267578125,120.28299713134766 -17.698999404907227,98.46900177001953 C-13.576000213623047,94.65699768066406 -6.460999965667725,95.68900299072266 -1.8240000009536743,100.77300262451172 C40.4119987487793,147.07699584960938 95.00199890136719,135.32400512695312 109.8030014038086,113.2750015258789 C124.60399627685547,91.22599792480469 138.01100158691406,69.15299987792969 138.01100158691406,69.15299987792969 C140.8820037841797,63.124000549316406 156.73399353027344,16.34600067138672 129.76400756835938,-36.62699890136719"></path></g><g opacity="1" transform="matrix(1,0,0,1,276.9200134277344,145.8990020751953)"><path stroke-linecap="round" stroke-linejoin="round" fill-opacity="0" stroke="rgb(201,130,54)" stroke-opacity="1" stroke-width="6" d=" M1.6690000295639038,-130.9409942626953 C-44.12300109863281,-117.44100189208984 -105.37100219726562,-83.14399719238281 -133.80799865722656,-19.79400062561035 C-135.48399353027344,-16.059999465942383 -137.23399353027344,-11.718999862670898 -138.7969970703125,-6.796000003814697"></path></g></g><g style="display: block;" transform="matrix(0.999998927116394,0,0,0.999998927116394,-0.0005202384199947119,4.999925136566162)" opacity="1"><g opacity="1" transform="matrix(1,0,0,1,326.0840148925781,279.61199951171875)"><path fill="url(#__lottie_element_70)" fill-opacity="1" d=" M-13.133000373840332,12.32800006866455 C-13.133000373840332,20.7450008392334 2.924999952316284,21.714000701904297 2.924999952316284,12.32800006866455 C2.924999952316284,4.688000202178955 7.011000156402588,-4.5229997634887695 11.730999946594238,-9.427000045776367 C16.78700065612793,-14.680000305175781 7.073999881744385,-22.743999481201172 -0.05299999937415123,-17.066999435424805 C-7.179999828338623,-11.390000343322754 -13.133000373840332,1.968000054359436 -13.133000373840332,12.32800006866455z"></path><path stroke-linecap="round" stroke-linejoin="round" fill-opacity="0" stroke="rgb(117,38,0)" stroke-opacity="1" stroke-width="5" d=" M-13.133000373840332,12.32800006866455 C-13.133000373840332,20.7450008392334 2.924999952316284,21.714000701904297 2.924999952316284,12.32800006866455 C2.924999952316284,4.688000202178955 7.011000156402588,-4.5229997634887695 11.730999946594238,-9.427000045776367 C16.78700065612793,-14.680000305175781 7.073999881744385,-22.743999481201172 -0.05299999937415123,-17.066999435424805 C-7.179999828338623,-11.390000343322754 -13.133000373840332,1.968000054359436 -13.133000373840332,12.32800006866455z"></path></g><g opacity="1" transform="matrix(1,0,0,1,198.86099243164062,257.906005859375)"><path fill="url(#__lottie_element_71)" fill-opacity="1" d=" M-13.133000373840332,12.32800006866455 C-13.133000373840332,20.7450008392334 2.924999952316284,21.714000701904297 2.924999952316284,12.32800006866455 C2.924999952316284,4.688000202178955 7.011000156402588,-4.5229997634887695 11.730999946594238,-9.427000045776367 C16.78700065612793,-14.680000305175781 7.073999881744385,-22.743999481201172 -0.05299999937415123,-17.066999435424805 C-7.179999828338623,-11.390000343322754 -13.133000373840332,1.968000054359436 -13.133000373840332,12.32800006866455z"></path><path stroke-linecap="round" stroke-linejoin="round" fill-opacity="0" stroke="rgb(117,38,0)" stroke-opacity="1" stroke-width="5" d=" M-13.133000373840332,12.32800006866455 C-13.133000373840332,20.7450008392334 2.924999952316284,21.714000701904297 2.924999952316284,12.32800006866455 C2.924999952316284,4.688000202178955 7.011000156402588,-4.5229997634887695 11.730999946594238,-9.427000045776367 C16.78700065612793,-14.680000305175781 7.073999881744385,-22.743999481201172 -0.05299999937415123,-17.066999435424805 C-7.179999828338623,-11.390000343322754 -13.133000373840332,1.968000054359436 -13.133000373840332,12.32800006866455z"></path></g></g><g style="display: block;" transform="matrix(1.0499999523162842,0,0,1.0499999523162842,-22.799135208129883,0.2000717967748642)" opacity="1"><g opacity="1" transform="matrix(1,0,0,1,239.77499389648438,266.6990051269531)"><path fill="url(#__lottie_element_8)" fill-opacity="1" d=" M61.69499969482422,67.0780029296875 C102.52400207519531,21.93899917602539 71.13800048828125,-59.65299987792969 1.1859999895095825,-67.0479965209961 C-59.67599868774414,-73.46299743652344 -99.21099853515625,0.3179999887943268 -64.7979965209961,50.29100036621094 C-56.810001373291016,48.49100112915039 -48.46799850463867,47.22100067138672 -48.46799850463867,47.22100067138672 C-68.09700012207031,28.209999084472656 -61.85599899291992,-37.86000061035156 -4.021999835968018,-35.066001892089844 C54.13100051879883,-32.064998626708984 71.45700073242188,25.641000747680664 52.21500015258789,62.03799819946289 C55.56700134277344,63.66299819946289 61.69499969482422,67.0780029296875 61.69499969482422,67.0780029296875z"></path><path stroke="url(#__lottie_element_9)" stroke-linecap="round" stroke-linejoin="round" fill-opacity="0" stroke-opacity="1" stroke-width="3" d=" M61.69499969482422,67.0780029296875 C102.52400207519531,21.93899917602539 71.13800048828125,-59.65299987792969 1.1859999895095825,-67.0479965209961 C-59.67599868774414,-73.46299743652344 -99.21099853515625,0.3179999887943268 -64.7979965209961,50.29100036621094 C-56.810001373291016,48.49100112915039 -48.46799850463867,47.22100067138672 -48.46799850463867,47.22100067138672 C-68.09700012207031,28.209999084472656 -61.85599899291992,-37.86000061035156 -4.021999835968018,-35.066001892089844 C54.13100051879883,-32.064998626708984 71.45700073242188,25.641000747680664 52.21500015258789,62.03799819946289 C55.56700134277344,63.66299819946289 61.69499969482422,67.0780029296875 61.69499969482422,67.0780029296875z"></path></g><g opacity="1" transform="matrix(1,0,0,1,221.64100646972656,223.12100219726562)"><path fill="rgb(255,255,255)" fill-opacity="1" d=" M-53.875999450683594,34.667999267578125 C-44.36899948120117,-9.843000411987305 5.988999843597412,-39.35900115966797 53.209999084472656,-9.439000129699707 C8.241000175476074,-26.73200035095215 -39.47600173950195,-7.211999893188477 -53.875999450683594,34.667999267578125z"></path></g><g opacity="1" transform="matrix(1,0,0,1,287.6210021972656,282.92999267578125)"><path fill="rgb(230,230,230)" fill-opacity="1" d=" M7.468999862670898,44.42300033569336 C18.809999465942383,22.267000198364258 22.594999313354492,-19.8700008392334 -16.86199951171875,-45.30500030517578 C14.72700023651123,-39.70899963378906 34.40800094604492,10.487000465393066 7.468999862670898,44.42300033569336z"></path></g><g opacity="1" transform="matrix(1,0,0,1,215.0970001220703,260.7590026855469)"><path fill="url(#__lottie_element_10)" fill-opacity="1" d=" M63.89400100708008,-13.005999565124512 C39.724998474121094,-32.73500061035156 4.676000118255615,-38.72600173950195 -18.454999923706055,-17.68400001525879 C-35.595001220703125,-2.7880001068115234 -39.96099853515625,28.826000213623047 -28.549999237060547,50.4640007019043 C-73.06300354003906,-4.576000213623047 3.9260001182556152,-83.36199951171875 63.89400100708008,-13.005999565124512z"></path></g><g opacity="0" transform="matrix(1,0,0,1,0,0)"><path fill="url(#__lottie_element_11)" fill-opacity="1" d=" M230.0330047607422,342.2349853515625 C223.66700744628906,340.6619873046875 221.19500732421875,350.02398681640625 227.41099548339844,351.59698486328125 C233.6269989013672,353.1700134277344 242.98899841308594,354.2179870605469 252.72500610351562,354.0679931640625 C262.46099853515625,353.9179992675781 265.6059875488281,343.1340026855469 253.92300415039062,343.6579895019531 C242.24000549316406,344.1820068359375 236.3990020751953,343.8080139160156 230.0330047607422,342.2349853515625z"></path></g></g><g style="display: block;" transform="matrix(1.0499999523162842,0,0,1.0499999523162842,-21.822641372680664,5.693665981292725)" opacity="1"><g opacity="1" transform="matrix(1,0,0,1,0,0)"><g opacity="0.8" transform="matrix(1,0,0,1,0,0)"><g opacity="1" transform="matrix(1,0,0,1,233.7790069580078,176.17599487304688)"><path fill="rgb(248,74,170)" fill-opacity="1" d=" M-11.357000350952148,-17.674999237060547 C-11.357000350952148,-17.674999237060547 39.54999923706055,-14.187999725341797 39.54999923706055,-14.187999725341797 C39.54999923706055,-14.187999725341797 19.808000564575195,21.077999114990234 19.808000564575195,21.077999114990234 C19.808000564575195,21.077999114990234 -2.484999895095825,19.40999984741211 -2.484999895095825,19.40999984741211 C-2.484999895095825,19.40999984741211 -11.357000350952148,-17.674999237060547 -11.357000350952148,-17.674999237060547z"></path></g><g opacity="1" transform="matrix(1,0,0,1,233.77999877929688,153.11099243164062)"><path fill="rgb(255,255,255)" fill-opacity="1" d=" M39.54999923706055,8.876999855041504 C39.54999923706055,8.876999855041504 -11.357000350952148,5.389999866485596 -11.357000350952148,5.389999866485596 C-11.357000350952148,5.389999866485596 -2.303999900817871,-9.52400016784668 -2.303999900817871,-9.52400016784668 C-2.303999900817871,-9.52400016784668 26.993000030517578,-7.611999988555908 26.993000030517578,-7.611999988555908 C26.993000030517578,-7.611999988555908 39.54999923706055,8.876999855041504 39.54999923706055,8.876999855041504z"></path></g><g opacity="1" transform="matrix(1,0,0,1,264.6659851074219,180.1510009765625)"><path fill="rgb(255,255,255)" fill-opacity="1" d=" M0.375,23.433000564575195 C0.375,23.433000564575195 26.698999404907227,-4.8429999351501465 26.698999404907227,-4.8429999351501465 C26.698999404907227,-4.8429999351501465 8.663999557495117,-18.163000106811523 8.663999557495117,-18.163000106811523 C8.663999557495117,-18.163000106811523 -11.07800006866455,17.10300064086914 -11.07800006866455,17.10300064086914 C-11.07800006866455,17.10300064086914 0.375,23.433000564575195 0.375,23.433000564575195z"></path></g><g opacity="1" transform="matrix(1,0,0,1,267.510009765625,158.0399932861328)"><path fill="rgb(164,43,136)" fill-opacity="1" d=" M5.818999767303467,3.947999954223633 C5.818999767303467,3.947999954223633 -6.73799991607666,-12.541000366210938 -6.73799991607666,-12.541000366210938 C-6.73799991607666,-12.541000366210938 10.366999626159668,0.6700000166893005 10.366999626159668,0.6700000166893005 C10.366999626159668,0.6700000166893005 23.854000091552734,17.26799964904785 23.854000091552734,17.26799964904785 C23.854000091552734,17.26799964904785 5.818999767303467,3.947999954223633 5.818999767303467,3.947999954223633z"></path></g><g opacity="1" transform="matrix(1,0,0,1,202.5590057373047,180.27099609375)"><path fill="rgb(255,255,255)" fill-opacity="1" d=" M28.736000061035156,15.3149995803833 C28.736000061035156,15.3149995803833 19.86400032043457,-21.770000457763672 19.86400032043457,-21.770000457763672 C19.86400032043457,-21.770000457763672 -7.71999979019165,-14.067000389099121 -7.71999979019165,-14.067000389099121 C-7.71999979019165,-14.067000389099121 16.131000518798828,19.785999298095703 16.131000518798828,19.785999298095703 C16.131000518798828,19.785999298095703 28.736000061035156,15.3149995803833 28.736000061035156,15.3149995803833z"></path></g><g opacity="1" transform="matrix(1,0,0,1,199.71400451660156,158.0399932861328)"><path fill="rgb(164,43,136)" fill-opacity="1" d=" M22.708999633789062,0.460999995470047 C22.708999633789062,0.460999995470047 31.761999130249023,-14.45300006866455 31.761999130249023,-14.45300006866455 C31.761999130249023,-14.45300006866455 7.570000171661377,-6.591000080108643 7.570000171661377,-6.591000080108643 C7.570000171661377,-6.591000080108643 -4.875,8.163000106811523 -4.875,8.163000106811523 C-4.875,8.163000106811523 22.708999633789062,0.460999995470047 22.708999633789062,0.460999995470047z"></path></g><g opacity="1" transform="matrix(1,0,0,1,234.10499572753906,200.39199829101562)"><path fill="rgb(234,110,201)" fill-opacity="1" d=" M19.482999801635742,-3.138000011444092 C19.482999801635742,-3.138000011444092 -2.809999942779541,-4.806000232696533 -2.809999942779541,-4.806000232696533 C-2.809999942779541,-4.806000232696533 -15.414999961853027,-0.33500000834465027 -15.414999961853027,-0.33500000834465027 C-15.414999961853027,-0.33500000834465027 -8.482000350952148,7.683000087738037 -8.482000350952148,7.683000087738037 C-8.482000350952148,7.683000087738037 14.071000099182129,9.741999626159668 14.071000099182129,9.741999626159668 C14.071000099182129,9.741999626159668 30.93600082397461,3.191999912261963 30.93600082397461,3.191999912261963 C30.93600082397461,3.191999912261963 19.482999801635742,-3.138000011444092 19.482999801635742,-3.138000011444092z"></path></g></g><g opacity="0.85" transform="matrix(1,0,0,1,0,0)"><g opacity="0.85" transform="matrix(1,0,0,1,233.56399536132812,158.41400146484375)"><path fill="rgb(255,131,147)" fill-opacity="1" d=" M27.066999435424805,-13.003000259399414 C27.066999435424805,-13.003000259399414 -2.111999988555908,-14.776000022888184 -2.111999988555908,-14.776000022888184 C-2.111999988555908,-14.776000022888184 -26.266000747680664,-7.045000076293945 -26.266000747680664,-7.045000076293945 C-26.266000747680664,-7.045000076293945 -13.428000450134277,10.074000358581543 -13.428000450134277,10.074000358581543 C-13.428000450134277,10.074000358581543 17.621999740600586,12.501999855041504 17.621999740600586,12.501999855041504 C17.621999740600586,12.501999855041504 44.382999420166016,0.5320000052452087 44.382999420166016,0.5320000052452087 C44.382999420166016,0.5320000052452087 27.066999435424805,-13.003000259399414 27.066999435424805,-13.003000259399414z"></path></g><g opacity="1" transform="matrix(1,0,0,1,202.38299560546875,190.3419952392578)"><path fill="rgb(205,45,45)" fill-opacity="1" d=" M16.30500030517578,9.652000427246094 C16.30500030517578,9.652000427246094 -7.696000099182129,-24.131000518798828 -7.696000099182129,-24.131000518798828 C-7.696000099182129,-24.131000518798828 6.701000213623047,-2.13700008392334 6.701000213623047,-2.13700008392334 C6.701000213623047,-2.13700008392334 23.229000091552734,17.649999618530273 23.229000091552734,17.649999618530273 C23.229000091552734,17.649999618530273 16.30500030517578,9.652000427246094 16.30500030517578,9.652000427246094z"></path></g><g opacity="1" transform="matrix(1,0,0,1,233.77999877929688,201.10499572753906)"><path fill="rgb(168,2,2)" fill-opacity="1" d=" M14.52299976348877,9.093999862670898 C14.52299976348877,9.093999862670898 27.226999282836914,-8.222999572753906 27.226999282836914,-8.222999572753906 C27.226999282836914,-8.222999572753906 -24.69499969482422,-12.899999618530273 -24.69499969482422,-12.899999618530273 C-24.69499969482422,-12.899999618530273 -8.166999816894531,6.88700008392334 -8.166999816894531,6.88700008392334 C-8.166999816894531,6.88700008392334 14.52299976348877,9.093999862670898 14.52299976348877,9.093999862670898z"></path></g><g opacity="1" transform="matrix(1,0,0,1,265.17999267578125,190.3419952392578)"><path fill="rgb(101,0,0)" fill-opacity="1" d=" M26.201000213623047,-14.977999687194824 C26.201000213623047,-14.977999687194824 -4.173999786376953,2.5399999618530273 -4.173999786376953,2.5399999618530273 C-4.173999786376953,2.5399999618530273 -16.87700080871582,19.85700035095215 -16.87700080871582,19.85700035095215 C-16.87700080871582,19.85700035095215 -0.004999999888241291,13.281000137329102 -0.004999999888241291,13.281000137329102 C-0.004999999888241291,13.281000137329102 26.201000213623047,-14.977999687194824 26.201000213623047,-14.977999687194824z"></path></g><g opacity="1" transform="matrix(1,0,0,1,199.99000549316406,174.56100463867188)"><path fill="rgb(255,255,255)" fill-opacity="1" d=" M-5.353000164031982,-8.350000381469727 C-5.353000164031982,-8.350000381469727 7.309000015258789,-23.191999435424805 7.309000015258789,-23.191999435424805 C7.309000015258789,-23.191999435424805 20.145999908447266,-6.072999954223633 20.145999908447266,-6.072999954223633 C20.145999908447266,-6.072999954223633 9.095000267028809,13.645000457763672 9.095000267028809,13.645000457763672 C9.095000267028809,13.645000457763672 -5.353000164031982,-8.350000381469727 -5.353000164031982,-8.350000381469727z"></path></g><g opacity="1" transform="matrix(1,0,0,1,233.77999877929688,182.19200134277344)"><path fill="rgb(248,74,74)" fill-opacity="1" d=" M17.4060001373291,-11.276000022888184 C17.4060001373291,-11.276000022888184 27.226999282836914,10.6899995803833 27.226999282836914,10.6899995803833 C27.226999282836914,10.6899995803833 -24.69499969482422,6.013000011444092 -24.69499969482422,6.013000011444092 C-24.69499969482422,6.013000011444092 -13.644000053405762,-13.704000473022461 -13.644000053405762,-13.704000473022461 C-13.644000053405762,-13.704000473022461 17.4060001373291,-11.276000022888184 17.4060001373291,-11.276000022888184z"></path></g><g opacity="1" transform="matrix(1,0,0,1,267.510009765625,174.82200622558594)"><path fill="rgb(205,45,45)" fill-opacity="1" d=" M10.437000274658203,-15.87600040435791 C10.437000274658203,-15.87600040435791 -16.325000762939453,-3.9059998989105225 -16.325000762939453,-3.9059998989105225 C-16.325000762939453,-3.9059998989105225 -6.504000186920166,18.059999465942383 -6.504000186920166,18.059999465942383 C-6.504000186920166,18.059999465942383 23.871000289916992,0.5429999828338623 23.871000289916992,0.5429999828338623 C23.871000289916992,0.5429999828338623 10.437000274658203,-15.87600040435791 10.437000274658203,-15.87600040435791z"></path></g></g><g opacity="1" transform="matrix(1,0,0,1,233.44500732421875,177.281005859375)"><path stroke-linecap="round" stroke-linejoin="round" fill-opacity="0" stroke="rgb(147,0,0)" stroke-opacity="1" stroke-width="3" d=" M-26.115999221801758,-25.933000564575195 C-26.115999221801758,-25.933000564575195 -39.020999908447266,-11.034000396728516 -39.020999908447266,-11.034000396728516 C-39.020999908447266,-11.034000396728516 -14.847999572753906,22.844999313354492 -14.847999572753906,22.844999313354492 C-14.847999572753906,22.844999313354492 -7.638999938964844,31.06800079345703 -7.638999938964844,31.06800079345703 C-7.638999938964844,31.06800079345703 14.835000038146973,33.117000579833984 14.835000038146973,33.117000579833984 C14.835000038146973,33.117000579833984 31.593000411987305,26.263999938964844 31.593000411987305,26.263999938964844 C31.593000411987305,26.263999938964844 57.94300079345703,-1.9539999961853027 57.94300079345703,-1.9539999961853027 C57.94300079345703,-1.9539999961853027 44.43299865722656,-18.542999267578125 44.43299865722656,-18.542999267578125 C44.43299865722656,-18.542999267578125 27.375,-31.97100067138672 27.375,-31.97100067138672 C27.375,-31.97100067138672 -1.9190000295639038,-33.60200119018555 -1.9190000295639038,-33.60200119018555 C-1.9190000295639038,-33.60200119018555 -26.115999221801758,-25.933000564575195 -26.115999221801758,-25.933000564575195z"></path></g></g><g opacity="1" transform="matrix(1,0,0,1,233.83599853515625,205.3280029296875)"><path fill="rgb(106,106,106)" fill-opacity="1" d=" M-17.458999633789062,-4.994999885559082 C-17.458999633789062,-4.994999885559082 -7.942999839782715,2.9179999828338623 -7.942999839782715,2.9179999828338623 C-7.942999839782715,2.9179999828338623 -4.171000003814697,-0.1379999965429306 2.8519999980926514,0.5019999742507935 C10.062999725341797,1.1710000038146973 13.965999603271484,5.125 13.965999603271484,5.125 C13.965999603271484,5.125 31.07699966430664,-1.5110000371932983 31.07699966430664,-1.5110000371932983 C31.07699966430664,-1.5110000371932983 14.467000007629395,6.236000061035156 14.467000007629395,6.236000061035156 C14.467000007629395,6.236000061035156 -8.222999572753906,4.0289998054504395 -8.222999572753906,4.0289998054504395 C-8.222999572753906,4.0289998054504395 -17.458999633789062,-4.994999885559082 -17.458999633789062,-4.994999885559082z"></path><path stroke="url(#__lottie_element_66)" stroke-linecap="round" stroke-linejoin="round" fill-opacity="0" stroke-opacity="1" stroke-width="3" d=" M-17.458999633789062,-4.994999885559082 C-17.458999633789062,-4.994999885559082 -7.942999839782715,2.9179999828338623 -7.942999839782715,2.9179999828338623 C-7.942999839782715,2.9179999828338623 -4.171000003814697,-0.1379999965429306 2.8519999980926514,0.5019999742507935 C10.062999725341797,1.1710000038146973 13.965999603271484,5.125 13.965999603271484,5.125 C13.965999603271484,5.125 31.07699966430664,-1.5110000371932983 31.07699966430664,-1.5110000371932983 C31.07699966430664,-1.5110000371932983 14.467000007629395,6.236000061035156 14.467000007629395,6.236000061035156 C14.467000007629395,6.236000061035156 -8.222999572753906,4.0289998054504395 -8.222999572753906,4.0289998054504395 C-8.222999572753906,4.0289998054504395 -17.458999633789062,-4.994999885559082 -17.458999633789062,-4.994999885559082z"></path></g></g><g style="display: block;" transform="matrix(0.999998927116394,0,0,0.999998927116394,0.00021676108008250594,0.0006012825760990381)" opacity="1"><g opacity="1" transform="matrix(1,0,0,1,167.83399963378906,444.968994140625)"><path fill="rgb(191,211,214)" fill-opacity="1" d=" M17.54400062561035,3.453000068664551 C17.54400062561035,26.57699966430664 -17.54400062561035,19.69700050354004 -17.54400062561035,-3.453000068664551 C-17.54400062561035,-26.57699966430664 17.54400062561035,-19.69700050354004 17.54400062561035,3.453000068664551z"></path><path stroke-linecap="round" stroke-linejoin="round" fill-opacity="0" stroke="rgb(72,95,96)" stroke-opacity="1" stroke-width="6" d=" M17.54400062561035,3.453000068664551 C17.54400062561035,26.57699966430664 -17.54400062561035,19.69700050354004 -17.54400062561035,-3.453000068664551 C-17.54400062561035,-26.57699966430664 17.54400062561035,-19.69700050354004 17.54400062561035,3.453000068664551z"></path></g><g opacity="1" transform="matrix(1,0,0,1,166.4320068359375,434.6109924316406)"><path stroke-linecap="round" stroke-linejoin="round" fill-opacity="0" stroke="rgb(255,255,255)" stroke-opacity="1" stroke-width="3" d=" M-11.460000038146973,2.0280001163482666 C-9.45300006866455,-4.447000026702881 2.3949999809265137,-5.807000160217285 11.460000038146973,3.193000078201294"></path></g><g opacity="1" transform="matrix(1,0,0,1,164.0030059814453,448.9800109863281)"><path fill="rgb(164,190,193)" fill-opacity="1" d=" M11.446000099182129,2.072999954223633 C11.446000099182129,17.415000915527344 -11.446000099182129,13.244999885559082 -11.446000099182129,-2.071000099182129 C-11.446000099182129,-17.38599967956543 11.446000099182129,-13.284000396728516 11.446000099182129,2.072999954223633z"></path><path stroke-linecap="round" stroke-linejoin="round" fill-opacity="0" stroke="rgb(132,160,165)" stroke-opacity="1" stroke-width="6" d=" M11.446000099182129,2.072999954223633 C11.446000099182129,17.415000915527344 -11.446000099182129,13.244999885559082 -11.446000099182129,-2.071000099182129 C-11.446000099182129,-17.38599967956543 11.446000099182129,-13.284000396728516 11.446000099182129,2.072999954223633z"></path></g><g opacity="1" transform="matrix(1,0,0,1,162.5800018310547,441.6570129394531)"><path stroke-linecap="round" stroke-linejoin="round" fill-opacity="0" stroke="rgb(255,255,255)" stroke-opacity="1" stroke-width="3" d=" M-7.607999801635742,1.5529999732971191 C-6.218999862670898,-2.927000045776367 2.427999973297119,-3.8529999256134033 7.607999801635742,2.0889999866485596"></path></g><g opacity="0.25" transform="matrix(1,0,0,1,171.1510009765625,453.6180114746094)"><path fill="rgb(0,0,0)" fill-opacity="1" d=" M18.695999145507812,5.848999977111816 C20.929000854492188,0.3630000054836273 21.236000061035156,-13.369999885559082 10.553000450134277,-21.121999740600586 C12.925999641418457,-12.293000221252441 8.281999588012695,-3.890000104904175 1.1959999799728394,-6.408999919891357 C-2.7019999027252197,1.628999948501587 -16.410999298095703,1.9220000505447388 -20.292999267578125,-0.7929999828338623 C-19.559999465942383,12.79800033569336 -3.4509999752044678,17.493999481201172 2.015000104904175,16.65999984741211 C10.407999992370605,27.02199935913086 25.17099952697754,17.632999420166016 18.695999145507812,5.848999977111816z"></path></g><g opacity="1" transform="matrix(1,0,0,1,158.79200744628906,454.9549865722656)"><path fill="rgb(191,211,214)" fill-opacity="1" d=" M10.098999977111816,0.0020000000949949026 C10.098999977111816,13.324000358581543 -10.098999977111816,13.302000045776367 -10.098999977111816,0.0020000000949949026 C-10.098999977111816,-13.29699993133545 10.098999977111816,-13.333000183105469 10.098999977111816,0.0020000000949949026z"></path><path stroke-linecap="round" stroke-linejoin="round" fill-opacity="0" stroke="rgb(118,142,145)" stroke-opacity="1" stroke-width="6" d=" M10.098999977111816,0.0020000000949949026 C10.098999977111816,13.324000358581543 -10.098999977111816,13.302000045776367 -10.098999977111816,0.0020000000949949026 C-10.098999977111816,-13.29699993133545 10.098999977111816,-13.333000183105469 10.098999977111816,0.0020000000949949026z"></path></g><g opacity="1" transform="matrix(1,0,0,1,156.2209930419922,453.16900634765625)"><path fill="rgb(253,255,255)" fill-opacity="1" d=" M3.9030001163482666,0.0010000000474974513 C3.9030001163482666,5.150000095367432 -3.9030001163482666,5.140999794006348 -3.9030001163482666,0.0010000000474974513 C-3.9030001163482666,-5.138999938964844 3.9030001163482666,-5.1529998779296875 3.9030001163482666,0.0010000000474974513z"></path></g></g><g style="display: block;" transform="matrix(0.999998927116394,0,0,0.999998927116394,0.00018471761723048985,0.00010460898920428008)" opacity="1"><g opacity="1" transform="matrix(1,0,0,1,222.81900024414062,350.9150085449219)"><path fill="url(#__lottie_element_59)" fill-opacity="1" d=" M73.74800109863281,35.18899917602539 C85.27300262451172,31.045000076293945 105.06099700927734,21.71500015258789 110.33100128173828,16.41200065612793 C110.4209976196289,0.6610000133514404 75.23500061035156,-16.319000244140625 5.7270002365112305,-28.034000396728516 C-61.72200012207031,-39.402000427246094 -106.61399841308594,-37.24800109863281 -110.33100128173828,-21.400999069213867 C-109.91100311279297,-7.566999912261963 -106.59700012207031,0.6140000224113464 -106.59700012207031,0.6140000224113464"></path><path stroke-linecap="round" stroke-linejoin="round" fill-opacity="0" stroke="rgb(100,0,0)" stroke-opacity="1" stroke-width="3" d=" M73.74800109863281,35.18899917602539 C85.27300262451172,31.045000076293945 105.06099700927734,21.71500015258789 110.33100128173828,16.41200065612793 C110.4209976196289,0.6610000133514404 75.23500061035156,-16.319000244140625 5.7270002365112305,-28.034000396728516 C-61.72200012207031,-39.402000427246094 -106.61399841308594,-37.24800109863281 -110.33100128173828,-21.400999069213867 C-109.91100311279297,-7.566999912261963 -106.59700012207031,0.6140000224113464 -106.59700012207031,0.6140000224113464"></path></g><g opacity="1" transform="matrix(1,0,0,1,161.7989959716797,335.3869934082031)"><path fill="rgb(255,65,65)" fill-opacity="1" d=" M-47.64899826049805,-5.959000110626221 C-42.57699966430664,-20.117000579833984 -3.865000009536743,-20.856000900268555 47.64899826049805,-13.869000434875488 C-16.645999908447266,-17.43000030517578 -47.75699996948242,-6.359000205993652 -42.80400085449219,18.180999755859375 C-46.3650016784668,10.800000190734863 -47.43299865722656,1.4759999513626099 -47.64899826049805,-5.959000110626221z"></path></g></g><g style="display: block;" transform="matrix(0.999998927116394,0,0,0.999998927116394,135.7508544921875,362.85009765625)" opacity="1"><g opacity="1" transform="matrix(1,0,0,1,0,0)"><path stroke="url(#__lottie_element_55)" stroke-linecap="round" stroke-linejoin="round" fill-opacity="0" stroke-opacity="0.75" stroke-width="3" d=" M-24.082000732421875,-40.327999114990234 C-28.054000854492188,3.7009999752044678 9.758999824523926,31.152999877929688 24.37299919128418,40.327999114990234"></path></g></g><g style="display: none;"><g><path fill="url(#__lottie_element_48)"></path><path stroke-linecap="round" stroke-linejoin="round" fill-opacity="0"></path></g><g><path stroke="url(#__lottie_element_49)" stroke-linecap="round" stroke-linejoin="round" fill-opacity="0"></path></g><g><path fill="url(#__lottie_element_50)"></path></g><g><g><path fill="url(#__lottie_element_51)"></path></g></g><g><path stroke-linecap="round" stroke-linejoin="round" fill-opacity="0"></path></g><g><path stroke-linecap="round" stroke-linejoin="round" fill-opacity="0"></path></g></g><g style="display: none;"><g><path fill="url(#__lottie_element_44)"></path></g><g><path stroke-linecap="round" stroke-linejoin="round" fill-opacity="0"></path></g></g><g style="display: none;"><g><path stroke-linecap="round" stroke-linejoin="round" fill-opacity="0"></path></g></g><g style="display: none;"><g><path fill="url(#__lottie_element_36)"></path></g><g><path fill="url(#__lottie_element_37)"></path></g></g><g style="display: none;"><g><path fill="url(#__lottie_element_31)"></path></g><g><path fill="url(#__lottie_element_32)"></path></g></g><g style="display: none;"><g><path fill="url(#__lottie_element_27)"></path></g></g><g style="display: none;"><g><path fill="url(#__lottie_element_23)"></path></g></g><g style="display: none;"><g><path fill="url(#__lottie_element_18)"></path></g><g><path fill="url(#__lottie_element_19)"></path></g></g><g style="display: none;"><g><path fill="url(#__lottie_element_14)"></path></g></g></g></svg>