<svg xmlns="http://www.w3.org/2000/svg" xmlns:xlink="http://www.w3.org/1999/xlink" viewBox="0 0 512 512" width="512" height="512" style="width: 100%; height: 100%; transform: translate3d(0,0,0); content-visibility: visible;" preserveAspectRatio="xMidYMid meet"><defs><clipPath id="__lottie_element_2"><rect width="512" height="512" x="0" y="0"></rect></clipPath></defs><g clip-path="url(#__lottie_element_2)"><g style="display: block;" transform="matrix(1,0,0,1,0,0)" opacity="1"><g opacity="1" transform="matrix(1.4572999477386475,0,0,1.4572999477386475,-117.81999969482422,-136.86500549316406)"><g opacity="1" transform="matrix(5.069300174713135,0,0,5.069300174713135,0,2.5350000858306885)"><g opacity="1" transform="matrix(1,0,0,1,0,0)"><path fill-rule="evenodd" fill="rgb(255,0,255)" fill-opacity="1" d=" M48.553001403808594,41.01499938964844 C48.553001403808594,41.01499938964844 21.511999130249023,28.822999954223633 21.511999130249023,28.822999954223633 C19.54800033569336,27.937999725341797 20.18000030517578,25 22.333999633789062,25 C22.333999633789062,25 78.88200378417969,25 78.88200378417969,25 C81.03600311279297,25 81.66799926757812,27.937999725341797 79.7040023803711,28.822999954223633 C79.7040023803711,28.822999954223633 52.66400146484375,41.01499938964844 52.66400146484375,41.01499938964844 C51.35772705078125,41.60409164428711 49.85927200317383,41.60409164428711 48.553001403808594,41.01499938964844 M84.9260025024414,36.1619987487793 C86.00599670410156,34.481998443603516 84.22899627685547,32.43199920654297 82.41300201416016,33.262001037597656 C82.41300201416016,33.262001037597656 56.34700012207031,45.16699981689453 56.34700012207031,45.16699981689453 C54.57164001464844,45.9809684753418 53.42740249633789,47.761940002441406 53.42499923706055,49.71500015258789 C53.42499923706055,49.71500015258789 53.42499923706055,78.3550033569336 53.42499923706055,78.3550033569336 C53.42499923706055,80.3499984741211 56.02799987792969,81.11499786376953 57.106998443603516,79.43499755859375 C57.106998443603516,79.43499755859375 84.927001953125,36.1609992980957 84.927001953125,36.1609992980957 C84.927001953125,36.1609992980957 84.9260025024414,36.1619987487793 84.9260025024414,36.1619987487793z M18.790000915527344,33.262001037597656 C16.974000930786133,32.43199920654297 15.196999549865723,34.481998443603516 16.277000427246094,36.1619987487793 C16.277000427246094,36.1619987487793 44.09600067138672,79.43699645996094 44.09600067138672,79.43699645996094 C45.17599868774414,81.11599731445312 47.77799987792969,80.35099792480469 47.77799987792969,78.3550033569336 C47.77799987792969,78.3550033569336 47.77799987792969,49.71500015258789 47.77799987792969,49.71500015258789 C47.77520751953125,47.762298583984375 46.63103485107422,45.98181915283203 44.85599899291992,45.167999267578125 C44.85599899291992,45.167999267578125 18.790000915527344,33.2599983215332 18.790000915527344,33.2599983215332 C18.790000915527344,33.2599983215332 18.790000915527344,33.262001037597656 18.790000915527344,33.262001037597656z"></path></g></g></g></g></g></svg>